<svg xmlns="http://www.w3.org/2000/svg" viewBox="0 0 640 480">
  <rect x="0" y="0" width="640" height="480" fill="#d2d2d2" />
  <path d="M245.94 256.08l-.07 3.71h-15.68L221 242.15l-4.62.07v12.95l5.81.91-.07 3.71h-23.99l-.42-2.24a37.9 37.9 0 0 1 5.95-3.29v-36.33l-5.25-.77.07-3.71 23.73-.56q8.4 0 13.82 4.17a12.8 12.8 0 0 1 3 18 16 16 0 0 1-6.65 5.35l9.31 15.05zm-29.61-20.37a16.08 16.08 0 0 0 3.92.49q8.26 0 8.26-8.47 0-5.74-3.57-8.75l-8.61 1.02zM274.43 243.76l-17.64-.14a10.43 10.43 0 0 0 3.25 7 10.11 10.11 0 0 0 7 2.45q3.71 0 8.89-2.66l1.75 4-11 6.23-3.22.21a18 18 0 0 1-12.92-4.9 16.54 16.54 0 0 1-5.15-12.53 18.33 18.33 0 0 1 5.21-13.2 16.88 16.88 0 0 1 12.64-5.42 15.32 15.32 0 0 1 11.06 4.1 14.08 14.08 0 0 1 4.2 10.81zm-13.09-13.16q-3.36 2.1-4.27 7.7l10.5-.63a9.78 9.78 0 0 0-2.13-4.94 5.39 5.39 0 0 0-4.1-2.13zM319 253.84a30.53 30.53 0 0 1 4.62 2.52l-.14 3.43h-16.57V240.4q0-7.07-4.48-7.07a10 10 0 0 0-4.41 1.19v19.67l3.78 2.17-.14 3.43H280.8l-.14-2.45a30.79 30.79 0 0 1 5.25-2.38V215.2l-5.18-.91-.35-3.5a50.55 50.55 0 0 1 13.86-2.59l3.78 3.5v19.18a34.07 34.07 0 0 1 10.43-5.74q6.58.21 9.73 5 .77 1.4.84 6.37zM344.85 252a28.92 28.92 0 0 0 5.6-.63l.49 3.64-11.55 6a9.34 9.34 0 0 1-6.4-2.21 6.91 6.91 0 0 1-2.91-5.5v-18.78H325l-.21-3.78a40.76 40.76 0 0 1 6-4.06l3.85-9.38h5.53l1.75 9.38h9.66l.07 3.5-3.5 4.41h-5.88V249q-.08 3 2.58 3zM412.82 253.77a23.42 23.42 0 0 1 5.39 2.59l-.21 3.43h-17.29V240.4q0-7.07-4.48-7.07a10.32 10.32 0 0 0-4.34 1.12L392 254a23.42 23.42 0 0 1 4.2 2.31l-.21 3.43h-16.1V240.4q0-7.07-4.48-7.07a11 11 0 0 0-4.2 1v19.74a22.69 22.69 0 0 1 4.06 2.24l-.14 3.43H354l-.14-2.45a30.09 30.09 0 0 1 5.18-2.31v-23.12l-5.18-1-.35-3.36a41.85 41.85 0 0 1 13.86-2.59l3.78 3.78v2a35.92 35.92 0 0 1 10.22-5.53q6.58.21 9.73 5l.42.91a36.14 36.14 0 0 1 10.71-5.95q6.58.21 9.73 5 .77 1.4.84 6.37zM437.25 253.91a19.55 19.55 0 0 1 5 2.45l-.14 3.43H420l-.14-2.45a30.74 30.74 0 0 1 5.32-2.38V215.2l-5.18-.91-.35-3.5a50.55 50.55 0 0 1 13.86-2.59l3.78 3.5z" fill="#2f3ad7"/>
  <path d="M208.55 173.1v13.2H207v-5.94h-7.16v5.94h-1.6v-13.2h1.6v5.76H207v-5.76zM222.15 174.6h-4.6v11.7H216v-11.7h-4.6v-1.5h10.8zM237.71 186.3h-1.52V178l.18-3.48L232 186.3h-1.36l-4.34-11.78.18 3.48v8.3H225v-13.2h2.46l2.9 8 1 3.3 1-3.28 2.88-8h2.46zM251.19 184.8v1.5H242v-13.2h1.6v11.7zM265.69 185.6a3.71 3.71 0 0 1-2.58.9 3 3 0 0 1-2-.66 2.57 2.57 0 0 1-.79-2v-6.14h-2v-1.4h2v-2.4l1.6-.44v2.84h3.7v1.38h-3.7v5.86a1.39 1.39 0 0 0 .41 1.09 1.57 1.57 0 0 0 1.09.37 2.34 2.34 0 0 0 1.7-.74zM275.72 177.48a6.3 6.3 0 0 1 0 7.64 5.25 5.25 0 0 1-7.1 0 6.3 6.3 0 0 1 0-7.64 5.26 5.26 0 0 1 7.1 0zm-5.93 1a5 5 0 0 0 0 5.6 3.29 3.29 0 0 0 4.76 0 5 5 0 0 0 0-5.6 3.29 3.29 0 0 0-4.76 0zM292 180.82h-3.16v5.48h-1.6v-13.2h5a4.82 4.82 0 0 1 3.24 1 3.52 3.52 0 0 1 1.22 2.82 3.62 3.62 0 0 1-.78 2.36 4 4 0 0 1-2.14 1.32l3.72 5.66h-1.9zm-3.16-1.5h3.38q2.8 0 2.8-2.36t-2.8-2.36h-3.38zM310.09 184.8v1.5h-9.56v-13.2h9.26v1.5h-7.66v4.26h6v1.5h-6v4.44zM320.71 182.64h-6l-1.4 3.66h-1.68l5.14-13.2h1.9l5.12 13.2h-1.7zm-.58-1.5l-1.78-4.68-.62-1.84-.58 1.78-1.8 4.74zM334.65 185.55a5.76 5.76 0 0 1-3.28 1 6.17 6.17 0 0 1-3.24-.83 5.52 5.52 0 0 1-2.13-2.36 9 9 0 0 1 0-7.21 5.5 5.5 0 0 1 2.13-2.37 6.74 6.74 0 0 1 6.39 0 4.76 4.76 0 0 1 1.93 2.3l-1.58.74a3.58 3.58 0 0 0-1.28-1.74 3.69 3.69 0 0 0-2.14-.58 4.45 4.45 0 0 0-2.38.63 4.14 4.14 0 0 0-1.58 1.83 6.65 6.65 0 0 0-.56 2.84 5.85 5.85 0 0 0 1.19 3.89 4 4 0 0 0 3.25 1.41 4 4 0 0 0 2.32-.68 3.72 3.72 0 0 0 1.4-2l1.6.6a5.27 5.27 0 0 1-2.04 2.53zM349 174.6h-4.6v11.7h-1.6v-11.7h-4.6v-1.5H349z" fill="#2f3ad7"/>
  <path d="M315 295.94l-8.24 3.76 8.24 3.78v1.66l-9.52-4.5v-1.86l9.52-4.5zM318.24 307.1h-1.5l6.12-16h1.5zM335.6 298.78v1.86l-9.52 4.5v-1.66l8.24-3.78-8.24-3.76v-1.66z" fill="#2f3ad7"/>
</svg>
